HIERARCHY
ROOT Hips
{
	OFFSET 0.000000 0.000000 0.000000 
	CHANNELS 6 Xposition Yposition Zposition Zrotation Xrotation Yrotation
	JOINT Spine
	{
		OFFSET -0.000000 8.061080 0.000000 
		CHANNELS 3 Zrotation Xrotation Yrotation
		JOINT Spine1
		{
			OFFSET -0.000000 20.532677 0.000000 
			CHANNELS 3 Zrotation Xrotation Yrotation
			JOINT Neck
			{
				OFFSET -0.000000 22.498795 0.000000 
				CHANNELS 3 Zrotation Xrotation Yrotation
				JOINT Head
				{
					OFFSET -0.000000 15.237408 1.966117 
					CHANNELS 3 Zrotation Xrotation Yrotation
					End Site
					{
						OFFSET -0.000000 19.661171 0.000000 
					}
				}
			}
			JOINT LeftShoulder
			{
				OFFSET 3.894675 16.042269 -0.398189 
				CHANNELS 3 Zrotation Xrotation Yrotation
				JOINT LeftArm
				{
					OFFSET 19.709621 0.000000 0.000000 
					CHANNELS 3 Zrotation Xrotation Yrotation
					JOINT LeftForeArm
					{
						OFFSET 25.566900 0.000000 0.000000 
						CHANNELS 3 Zrotation Xrotation Yrotation
						JOINT LeftHand
						{
							OFFSET 25.401896 0.000000 0.000000 
							CHANNELS 3 Zrotation Xrotation Yrotation
							End Site
							{
								OFFSET 14.745877 0.000000 0.000000 
							}
						}
					}
				}
			}
			JOINT RightShoulder
			{
				OFFSET -3.930777 16.042269 -0.398189 
				CHANNELS 3 Zrotation Xrotation Yrotation
				JOINT RightArm
				{
					OFFSET -19.709621 0.000000 0.000000 
					CHANNELS 3 Zrotation Xrotation Yrotation
					JOINT RightForeArm
					{
						OFFSET -25.566900 0.000000 0.000000 
						CHANNELS 3 Zrotation Xrotation Yrotation
						JOINT RightHand
						{
							OFFSET -25.401896 0.000000 0.000000 
							CHANNELS 3 Zrotation Xrotation Yrotation
							End Site
							{
								OFFSET -14.745877 0.000000 0.000000 
							}
						}
					}
				}
			}
		}
	}
	JOINT LeftUpLeg
	{
		OFFSET 9.830585 0.000000 0.000000 
		CHANNELS 3 Zrotation Xrotation Yrotation
		JOINT LeftLeg
		{
			OFFSET -0.000000 -46.474842 0.000000 
			CHANNELS 3 Zrotation Xrotation Yrotation
			JOINT LeftFoot
			{
				OFFSET -0.000000 -30.290520 0.000000 
				CHANNELS 3 Zrotation Xrotation Yrotation
				JOINT LeftToeBase
				{
					OFFSET -0.000000 -6.389880 14.745877 
					CHANNELS 3 Zrotation Xrotation Yrotation
					End Site
					{
						OFFSET -0.000000 0.000000 3.932234 
					}
				}
			}
		}
	}
	JOINT RightUpLeg
	{
		OFFSET -9.830585 0.000000 0.000000 
		CHANNELS 3 Zrotation Xrotation Yrotation
		JOINT RightLeg
		{
			OFFSET -0.000000 -46.474842 0.000000 
			CHANNELS 3 Zrotation Xrotation Yrotation
			JOINT RightFoot
			{
				OFFSET -0.000000 -30.290520 0.000000 
				CHANNELS 3 Zrotation Xrotation Yrotation
				JOINT RightToeBase
				{
					OFFSET -0.000000 -6.389880 14.745877 
					CHANNELS 3 Zrotation Xrotation Yrotation
					End Site
					{
						OFFSET -0.000000 0.000000 3.932234 
					}
				}
			}
		}
	}
}
MOTION
Frames: 12
Frame Time: 0.010000
0.000000 85.748474 0.000000 -2.163482 5.535944 2.695610 2.295146 -6.302411 -0.518616 1.098256 -2.769949 -0.190551 3.040079 10.037803 -0.297027 1.185116 10.683533 0.106055 2.740933 9.798820 -0.349178 -69.266068 27.488708 -24.332157 -12.907998 0.789621 -5.412241 4.139718 0.442159 7.327484 -7.967267 9.808106 -10.389852 53.689430 54.417645 39.622589 5.682808 -8.286712 8.519614 -7.102188 -8.999116 4.782174 4.008183 1.295777 7.782150 2.224695 -7.461252 4.623405 -0.145686 5.181320 2.332876 0.000000 0.000000 0.000000 -6.847932 -6.859297 5.493582 9.276876 3.677226 -15.415079 -10.318708 3.450372 -5.774255 0.000000 0.000000 0.000000 
-0.014935 85.762337 -0.016178 -2.156432 5.567647 2.716058 2.335240 -6.371293 -0.497878 0.944996 -2.663045 -0.189504 3.161102 9.951480 -0.332173 1.193155 10.710238 0.092186 2.835105 9.997031 -0.276804 -69.077972 27.282095 -24.710627 -13.063215 0.864280 -5.366237 4.214257 0.520744 7.363088 -7.883327 9.750481 -10.414405 53.812172 54.394997 39.542747 5.665214 -8.283309 8.507521 -7.131152 -8.993989 4.765519 4.016049 1.226414 7.787433 2.204936 -7.423121 4.582367 -0.093898 5.224602 2.349456 0.000000 0.000000 0.000000 -6.840625 -6.905046 5.486754 9.265903 3.681663 -15.464128 -10.279611 3.488057 -5.798275 0.000000 0.000000 0.000000 
0.002965 85.749596 0.001719 -2.163903 5.545056 2.692773 2.300872 -6.300684 -0.526835 1.078322 -2.772567 -0.193929 3.035783 10.015340 -0.291282 1.245916 10.712564 0.096772 2.751150 9.795460 -0.349211 -69.258720 27.511292 -24.330986 -12.907746 0.771666 -5.402436 4.153118 0.426168 7.320593 -7.977849 9.682546 -10.279553 53.976582 54.494007 39.264870 5.628404 -8.323735 8.555437 -7.185559 -9.034630 4.740180 4.007061 1.280315 7.792522 2.222353 -7.441263 4.604280 -0.113150 5.171062 2.344170 0.000000 0.000000 0.000000 -6.850306 -6.871507 5.478964 9.281808 3.684700 -15.418646 -10.220419 3.453343 -5.850495 0.000000 0.000000 0.000000 
0.006437 85.752495 -0.000534 -2.178762 5.550657 2.683520 2.312962 -6.310287 -0.517088 1.077368 -2.760827 -0.190996 3.062221 10.021534 -0.297110 1.230807 10.687944 0.100583 2.756352 9.808144 -0.366326 -69.271622 27.491108 -24.333654 -12.887815 0.789574 -5.408211 4.162065 0.444837 7.316292 -7.965766 9.664939 -10.264934 54.002899 54.523457 39.215691 5.614522 -8.342352 8.546872 -7.209795 -9.053864 4.757898 3.988926 1.261617 7.786976 2.183563 -7.463284 4.604774 0.537575 5.444449 2.575289 0.000000 0.000000 0.000000 -6.807178 -6.800631 5.435696 9.229836 3.598315 -14.455036 -10.792784 3.666358 -6.190255 0.000000 0.000000 0.000000 
-0.008685 85.768066 -0.021933 -2.174425 5.595712 2.686888 2.325279 -6.424790 -0.466384 0.994559 -2.602849 -0.178760 3.148652 9.957990 -0.369118 1.239016 10.687564 0.041793 2.780351 9.966372 -0.355282 -69.087006 27.217781 -24.643946 -13.038387 0.890387 -5.386098 4.202517 0.544991 7.359738 -7.925132 9.560926 -10.275524 54.210026 54.548172 39.025833 5.546623 -8.396482 8.569375 -7.125022 -9.097657 4.712289 4.027382 1.193837 7.807110 2.199828 -7.411568 4.582851 -0.136942 5.215775 2.448756 0.000000 0.000000 0.000000 -6.804878 -6.828242 5.486071 9.234528 3.497241 -14.208996 -10.206331 3.709680 -7.010540 0.000000 0.000000 0.000000 
0.008543 85.748993 0.007261 -2.160706 5.553855 2.675764 2.294646 -6.303956 -0.520424 1.084971 -2.768132 -0.191514 3.024588 10.016038 -0.320821 1.284747 10.735201 0.055221 2.728408 9.806199 -0.362519 -69.237167 27.507832 -24.316402 -12.902131 0.772465 -5.425484 4.157965 0.425317 7.327312 -7.995998 9.700603 -10.286124 54.039196 54.468700 39.237297 5.641235 -8.305978 8.546116 -7.211063 -9.016592 4.710479 3.999045 1.286502 7.790518 2.225921 -7.462272 4.612296 -0.130243 5.183856 2.367769 0.000000 0.000000 0.000000 -6.854703 -6.882877 5.484201 9.288779 3.689698 -15.390549 -10.112837 3.471403 -5.970850 0.000000 0.000000 0.000000 
-0.005316 85.762428 -0.007316 -2.153457 5.590770 2.691134 2.334814 -6.399930 -0.490966 0.945951 -2.623298 -0.187604 3.132575 9.932417 -0.375645 1.265678 10.742043 0.024171 2.795190 9.978612 -0.285709 -69.040321 27.278208 -24.686888 -13.062104 0.871005 -5.374754 4.185479 0.524819 7.359333 -7.933095 9.617065 -10.303888 54.229176 54.423443 39.092693 5.628104 -8.286398 8.534770 -7.255390 -8.997545 4.713801 4.004120 1.215249 7.804568 2.212504 -7.423913 4.579219 -0.109964 5.211551 2.364136 0.000000 0.000000 0.000000 -6.846043 -6.933318 5.473623 9.265959 3.700782 -15.394314 -10.091894 3.514068 -5.975317 0.000000 0.000000 0.000000 
0.012160 85.749176 0.007936 -2.163127 5.577523 2.662358 2.343049 -6.328707 -0.550341 0.996181 -2.748370 -0.204928 3.044759 10.021563 -0.319070 1.297580 10.726750 0.058861 2.759243 9.808804 -0.296955 -69.234718 27.501488 -24.320786 -12.888930 0.775700 -5.422060 4.162299 0.428823 7.302678 -7.934996 9.705375 -10.246799 53.995766 54.457153 39.285446 5.673980 -8.315141 8.537180 -7.171749 -9.022563 4.652927 3.984898 1.258967 7.806740 2.217037 -7.466331 4.604960 0.081842 5.268392 2.459885 0.000000 0.000000 0.000000 -6.842784 -6.879989 5.464998 9.295039 3.707677 -14.784139 -10.297784 3.488534 -6.334039 0.000000 0.000000 0.000000 
-0.002264 85.761955 -0.001023 -2.153522 5.588181 2.674290 2.355364 -6.398485 -0.489045 0.904801 -2.612238 -0.188311 3.151609 9.930092 -0.406741 1.272357 10.767493 -0.005599 2.818815 9.981812 -0.278198 -69.050415 27.254709 -24.684538 -13.057281 0.870246 -5.358472 4.145586 0.522776 7.345934 -7.921307 9.616640 -10.301037 54.175476 54.481258 39.148407 5.608243 -8.318564 8.522019 -7.058950 -9.023177 4.773244 4.003595 1.230402 7.817729 2.207443 -7.437579 4.570879 -0.093318 5.220491 2.358486 0.000000 0.000000 0.000000 -6.848258 -6.939170 5.498877 9.280825 3.717744 -15.402153 -10.075565 3.506041 -6.008562 0.000000 0.000000 0.000000 
0.019572 85.748337 0.017491 -2.153754 5.547599 2.637967 2.304850 -6.333442 -0.498683 1.043275 -2.701243 -0.186394 3.067271 10.041801 -0.393462 1.287578 10.738829 -0.010383 2.748205 9.791017 -0.419377 -69.269325 27.447235 -24.281013 -12.867686 0.762965 -5.392004 4.112071 0.417350 7.315855 -7.969059 9.675475 -10.283285 54.060104 54.538021 39.189148 5.619586 -8.380395 8.593172 -7.329463 -9.093779 4.669036 3.981970 1.309666 7.809081 2.237687 -7.460593 4.612071 -0.202046 5.138607 2.421113 0.000000 0.000000 0.000000 -6.847220 -6.769353 5.470704 9.270160 3.532502 -14.108746 -10.138634 3.637169 -7.135546 0.000000 0.000000 0.000000 
0.005348 85.764771 -0.000538 -2.158915 5.597971 2.653245 2.358142 -6.399786 -0.481779 0.910932 -2.615810 -0.185927 3.136294 9.934867 -0.400856 1.295177 10.777605 -0.007789 2.813090 10.000734 -0.281715 -69.061424 27.223934 -24.699682 -13.040997 0.879317 -5.326052 4.151930 0.536765 7.338724 -7.921565 9.590672 -10.296848 54.201706 54.505798 39.091663 5.602950 -8.303571 8.532096 -7.040217 -9.009856 4.811209 3.974771 1.206797 7.816643 2.167599 -7.440755 4.555762 0.598506 5.476470 2.579320 0.000000 0.000000 0.000000 -6.815654 -6.876619 5.471501 9.223625 3.642071 -14.431675 -10.683167 3.689386 -6.318187 0.000000 0.000000 0.000000 
0.025135 85.747528 0.021618 -2.146527 5.543473 2.629729 2.291337 -6.316870 -0.507243 1.057198 -2.707666 -0.188441 3.052717 10.050594 -0.413578 1.284682 10.761883 -0.033966 2.733664 9.775146 -0.437188 -69.285759 27.421547 -24.235769 -12.861852 0.781425 -5.388923 4.170811 0.440419 7.313138 -7.976002 9.658677 -10.281519 54.010860 54.591316 39.213516 5.597738 -8.392352 8.603774 -7.242512 -9.101335 4.673031 3.973634 1.317283 7.813354 2.226248 -7.461559 4.607330 -0.191619 5.138703 2.432122 0.000000 0.000000 0.000000 -6.856419 -6.777335 5.487327 9.272615 3.561464 -14.158968 -10.181935 3.612776 -7.070137 0.000000 0.000000 0.000000 
